# xmcd CD database file
#
# Track frame offsets:
#	150
#	3360
#	26962
#	49907
#	78300
#	80820
#	120977
#	124817
#	149260
#	177072
#	197757
#	198367
#	229445
#	240450
#	263250
#
# Disc length: 3523 seconds
#
# Revision: 0
# Processed by: cddbd v1.5.1PL0 Copyright (c) Steve Scherf et al.
# Submitted via: CDex 1.51
#
DISCID=c40dc10f
DTITLE=Marian McPartland's Piano Jazz - Marian McPartland/Lionel Hampton
DYEAR=2004
DGENRE=Jazz
TTITLE0=Conversation
TTITLE1=Teach Me Tonight
TTITLE2=Conversation
TTITLE3=Sweet Georgia Brown
TTITLE4=Conversation
TTITLE5=Midnight Sun
TTITLE6=Conversation
TTITLE7=How High The Moon
TTITLE8=Conversation
TTITLE9=What's New
TTITLE10=Conversation
TTITLE11=Mack The Knife
TTITLE12=Conversation
TTITLE13=Flying Home
TTITLE14=Conversation
EXTD=YEAR: 2004
EXTT0=
EXTT1=
EXTT2=
EXTT3=
EXTT4=
EXTT5=
EXTT6=
EXTT7=
EXTT8=
EXTT9=
EXTT10=
EXTT11=
EXTT12=
EXTT13=
EXTT14=
PLAYORDER=
